# xmcd
#
# Track frame offsets:
#	150
#	17945
#	36370
#	52172
#	70505
#	82157
#	98015
#	113917
#	130022
#	148482
#
# Disc length: 2220 seconds
#
# Revision: 0
# Processed by: cddbd v1.5.2PL0 Copyright (c) Steve Scherf et al.
# Submitted via: audiograbber 1.83.01
#
DISCID=9108aa0a
DTITLE=Michelle Wright - Do Right by Me
DYEAR=1988
DGENRE=Country
TTITLE0=The Rhythm of Romance
TTITLE1=Do Right by Me
TTITLE2=I Want to Count on You
TTITLE3=I Wish I Were Only Lonely
TTITLE4=A Good Man Is Hard to Find
TTITLE5=Rock Me Gently
TTITLE6=New Fool at an Old Gamne
TTITLE7=With a Love Like Yours
TTITLE8=I Don't Want to Wonder
TTITLE9=Reaching for the Stars
EXTD=
EXTT0=
EXTT1=
EXTT2=
EXTT3=
EXTT4=
EXTT5=
EXTT6=
EXTT7=
EXTT8=
EXTT9=
PLAYORDER=
